-----------------------------------------------------------------------------------
AC-DC - Highway To Hell [LIVE] HQ MUSIC VIDEO H264 AAC [JAGUAR7]
-----------------------------------------------------------------------------------


-----------------------------------------------------------------------------------
INFO:
-----------------------------------------------------------------------------------

Format                           : MPEG-4
Codec ID                         : M4V 
File size                        : 20.0 MiB
Duration                         : 4mn 4s
Overall bit rate                 : 686 Kbps

Video
------
Format                           : AVC
Format/Info                      : Advanced Video Codec
Format profile                   : Baseline@L3.0
Format settings, CABAC           : No
Format settings, ReFrames        : 1 frame
Codec ID                         : avc1
Codec ID/Info                    : Advanced Video Coding
Duration                         : 4mn 4s
Bit rate mode                    : Variable
Bit rate                         : 555 Kbps
Maximum bit rate                 : 1 422 Kbps
Width                            : 480 pixels
Height                           : 272 pixels
Display aspect ratio             : 16:9
Frame rate mode                  : Constant
Frame rate                       : 29.970 fps
Resolution                       : 24 bits
Colorimetry                      : 4:2:0
Scan type                        : Progressive
Bits/(Pixel*Frame)               : 0.142
Stream size                      : 16.2 MiB (81%)
Title                            : ACDC - Highway to hell


Audio
------

Format                           : AAC
Format/Info                      : Advanced Audio Codec
Format version                   : Version 4
Format profile                   : LC
Format settings, SBR             : No
Codec ID                         : 40
Duration                         : 4mn 4s
Bit rate mode                    : Variable
Bit rate                         : 128 Kbps
Maximum bit rate                 : 135 Kbps
Channel(s)                       : 2 channels
Channel positions                : L R
Sampling rate                    : 48.0 KHz
Resolution                       : 16 bits
Stream size                      : 3.75 MiB (19%)

-----------------------------------------------------------------------------------
Note: I Have Not Tested The File On PSP/iPod Or Any Other Handheld.
      But If It Works Please Comment.
      
      Lyrics Included In Txt File.
-----------------------------------------------------------------------------------
===================================================================================

Band Info: AC/DC are an Australian rock band formed in 1973 by brothers Malcolm and Angus Young. Although the band are commonly classified as hard rock and are considered a pioneer of heavy metal,they have always classified their music as rock and roll.

As of 2008, AC/DC have sold more than 200 million albums worldwide,including 71 million albums in the United States.Back in Black has sold an estimated 45 million units worldwide, making it the highest-selling album by any band and the 2nd highest-selling album in history, behind Thriller by Michael Jackson.
===================================================================================


Seeding Will Be Slow,Be Patient. Comment About Quality And Compatibility. 

SUPPORT THE GREAT BAND, BUY ORIGINAL CDs/DVDs. Support Me. Seed As Much As You Can.

===================================================================================
  
http://thepiratebay.org/user/VIVALARAZA7


===================================================================================

SCREENSHOTS:
  
http://img215.imageshack.us/img215/9420/acdchighwaytohelllivehq.jpg


===================================================================================
